<?xml version="1.0" encoding="UTF-8"?> <svg xmlns="http://www.w3.org/2000/svg" width="500" height="500" viewBox="0 0 500 500" fill="none"><g clip-path="url(#clip0)"><path d="M-0.490234 28.4509C-0.490234 12.0609 12.7965 -1.22583 29.1865 -1.22583H470.323C486.713 -1.22583 500 12.0609 500 28.451V469.567C500 485.957 486.713 499.243 470.323 499.243H29.1866C12.7965 499.243 -0.490234 485.957 -0.490234 469.567V28.4509Z" fill="black"></path><path d="M401.603 50.3325H115.217V110.413H401.603V50.3325Z" fill="#E50913"></path><path d="M336.893 501.039H426.615L300.706 153.053H202.556L76.6465 501.039H165.378L186.198 439.572H316.073L336.893 501.039ZM294.262 374.138H208.504L251.135 246.742L294.262 374.138Z" fill="white"></path></g><defs><clipPath id="clip0"><rect width="500" height="500" fill="white"></rect></clipPath></defs></svg> 