<?xml version="1.0" encoding="UTF-8"?><svg id="j" xmlns="http://www.w3.org/2000/svg" width="599" height="232.16" viewBox="0 0 599 232.16"><rect width="599" height="232.16" fill="#3a5bff" stroke-width="0"/><path d="M327.46,68.1c0-3.32.66-6.48,1.84-9.37H121.63v17.68h36.77v99.03h19.7v-99.03h150.8c-.92-2.6-1.43-5.39-1.43-8.31Z" fill="#fff" stroke-width="0"/><path d="M200.18,175.44v-83.45h18.89v18.08c1.34-4.14,3.27-7.68,5.77-10.61,2.5-2.94,5.45-5.18,8.84-6.74,3.39-1.56,7.07-2.34,11.05-2.34.97,0,1.91.05,2.83.16.91.11,1.59.3,2.02.56v18.8c-.59-.27-1.35-.45-2.3-.57-.95-.11-1.76-.16-2.46-.16-4.03-.32-7.6-.16-10.7.48-3.1.65-5.71,1.73-7.83,3.27-2.13,1.54-3.73,3.47-4.81,5.81-1.07,2.34-1.61,5.07-1.61,8.19v48.51h-19.7Z" fill="#fff" stroke-width="0"/><path d="M282.19,177.06c-5.32,0-10.11-.98-14.33-2.95-4.23-1.97-7.54-4.78-9.92-8.47-2.4-3.69-3.59-8.16-3.59-13.44,0-9.2,3.32-16.14,9.97-20.83,6.64-4.68,17.23-7.13,31.76-7.34l12.51-.32v-5.66c0-4.41-1.3-7.87-3.91-10.37-2.61-2.51-6.66-3.7-12.15-3.59-4.09,0-7.81.92-11.14,2.78-3.33,1.86-5.55,4.97-6.62,9.32h-16.71c.32-5.7,1.98-10.48,4.97-14.33,2.99-3.85,7.09-6.73,12.31-8.63,5.21-1.91,11.25-2.87,18.08-2.87,7.97,0,14.45,1.05,19.45,3.15,5,2.1,8.69,5.13,11.05,9.08,2.37,3.96,3.55,8.73,3.55,14.33v58.52h-16.55l-1.61-15.01c-3.01,6.3-6.81,10.64-11.39,13.03-4.57,2.4-9.82,3.59-15.74,3.59h.01ZM288.56,163.74c2.42,0,4.82-.44,7.18-1.33,2.37-.89,4.5-2.1,6.42-3.63,1.91-1.54,3.44-3.24,4.6-5.13,1.16-1.88,1.76-3.85,1.82-5.89v-13.16l-10.25.16c-5.06.05-9.48.6-13.28,1.66-3.8,1.05-6.74,2.68-8.84,4.88-2.1,2.2-3.15,5.16-3.15,8.88,0,4.25,1.48,7.57,4.44,9.97,2.96,2.4,6.64,3.59,11.06,3.59h-.01Z" fill="#fff" stroke-width="0"/><path d="M342.63,175.23v-83.46h18.8v83.46h-18.8Z" fill="#fff" stroke-width="0"/><path d="M400.56,176.44c-5.39,0-9.69-.68-12.91-2.02-3.23-1.34-5.66-3.15-7.27-5.41-1.61-2.26-2.68-4.81-3.19-7.62-.52-2.83-.76-5.72-.76-8.68V58.74h19.29v91.71c0,3.6.74,6.41,2.22,8.4,1.48,1.99,3.89,3.15,7.22,3.47l4.19.16v12.35c-1.45.43-2.94.81-4.44,1.13-1.5.32-2.96.48-4.35.48h.01Z" fill="#fff" stroke-width="0"/><path d="M449.64,176.84c-5.82,0-11.31-.92-16.5-2.78-5.19-1.86-9.55-4.77-13.07-8.76-3.53-3.98-5.74-9.12-6.65-15.42h17.28c.75,3.06,2.09,5.57,4,7.5,1.91,1.94,4.17,3.35,6.78,4.24,2.61.89,5.31,1.33,8.11,1.33,5,0,9.04-.86,12.11-2.58,3.06-1.72,4.6-4.39,4.6-7.99,0-2.63-.85-4.73-2.54-6.3-1.7-1.56-4.45-2.74-8.28-3.55l-15.81-3.63c-7.11-1.56-12.78-4.14-17.03-7.75-4.25-3.6-6.41-8.69-6.46-15.26-.05-4.95,1.18-9.36,3.71-13.23,2.53-3.87,6.3-6.92,11.3-9.16,5-2.24,11.16-3.35,18.48-3.35,9.74,0,17.56,2.17,23.45,6.49,5.89,4.33,8.92,10.5,9.09,18.52h-16.71c-.59-3.6-2.29-6.42-5.09-8.44-2.79-2.02-6.43-3.03-10.9-3.03s-8.42.89-11.39,2.67c-2.96,1.77-4.44,4.49-4.44,8.15,0,2.53,1.12,4.52,3.35,5.98,2.24,1.45,5.63,2.69,10.21,3.71l15.01,3.63c4.3,1.08,7.83,2.53,10.57,4.35,2.74,1.83,4.88,3.84,6.42,6.01,1.54,2.18,2.61,4.41,3.23,6.7.61,2.29.92,4.4.92,6.33,0,5.39-1.39,9.97-4.16,13.76-2.77,3.8-6.68,6.71-11.71,8.76-5.03,2.04-10.99,3.06-17.88,3.06v.03Z" fill="#fff" stroke-width="0"/><path d="M352.25,79.11c6.08,0,11.01-4.93,11.01-11.01s-4.93-11.01-11.01-11.01-11.01,4.93-11.01,11.01,4.93,11.01,11.01,11.01Z" fill="#fff" stroke-width="0"/></svg>