<svg xmlns="http://www.w3.org/2000/svg" width="24" height="24" viewBox="0 0 24 24">
              <title>roadmap</title>
              <g fill="none">
                <path d="M6 13.8L6 17.2C6 18.8802 6 19.7202 6.32698 20.362C6.6146 20.9265 7.07354 21.3854 7.63803 21.673C8.27976 22 9.11984 22 10.8 22H16.6745C17.1637 22 17.4083 22 17.6385 21.9447C17.8425 21.8957 18.0376 21.8149 18.2166 21.7053C18.4184 21.5816 18.5914 21.4086 18.9373 21.0627L22.2373 17.7627C23.0293 16.9707 23.4253 16.5747 23.5737 16.118C23.7042 15.7163 23.7042 15.2837 23.5737 14.882C23.4253 14.4253 23.0293 14.0293 22.2373 13.2373L18.9373 9.93726C18.5914 9.59135 18.4184 9.4184 18.2166 9.29472C18.0376 9.18506 17.8425 9.10425 17.6385 9.05526C17.4083 9 17.1637 9 16.6745 9L10.8 9C9.11984 9 8.27976 9 7.63803 9.32698C7.07354 9.6146 6.6146 10.0735 6.32698 10.638C6 11.2798 6 12.1198 6 13.8Z" fill="url(#1752500502801-4229323_roadmap_existing_0_x1tvi5p96)" data-glass="origin" mask="url(#1752500502801-4229323_roadmap_mask_40r2zbvdd)"></path>
                <path d="M6 13.8L6 17.2C6 18.8802 6 19.7202 6.32698 20.362C6.6146 20.9265 7.07354 21.3854 7.63803 21.673C8.27976 22 9.11984 22 10.8 22H16.6745C17.1637 22 17.4083 22 17.6385 21.9447C17.8425 21.8957 18.0376 21.8149 18.2166 21.7053C18.4184 21.5816 18.5914 21.4086 18.9373 21.0627L22.2373 17.7627C23.0293 16.9707 23.4253 16.5747 23.5737 16.118C23.7042 15.7163 23.7042 15.2837 23.5737 14.882C23.4253 14.4253 23.0293 14.0293 22.2373 13.2373L18.9373 9.93726C18.5914 9.59135 18.4184 9.4184 18.2166 9.29472C18.0376 9.18506 17.8425 9.10425 17.6385 9.05526C17.4083 9 17.1637 9 16.6745 9L10.8 9C9.11984 9 8.27976 9 7.63803 9.32698C7.07354 9.6146 6.6146 10.0735 6.32698 10.638C6 11.2798 6 12.1198 6 13.8Z" fill="url(#1752500502801-4229323_roadmap_existing_0_x1tvi5p96)" data-glass="clone" filter="url(#1752500502801-4229323_roadmap_filter_zbd5an8rb)" clip-path="url(#1752500502801-4229323_roadmap_clipPath_2g2ybi1sn)"></path>
                <path d="M17.9999 6.8L17.9999 10.2C17.9999 11.8802 17.9999 12.7202 17.673 13.362C17.3853 13.9265 16.9264 14.3854 16.3619 14.673C15.7202 15 14.8801 15 13.1999 15H7.32543C6.83624 15 6.59165 15 6.36148 14.9447C6.15741 14.8957 5.96232 14.8149 5.78337 14.7053C5.58154 14.5816 5.40859 14.4086 5.06268 14.0627L1.76268 10.7627C0.97065 9.97071 0.574633 9.57469 0.426256 9.11803C0.29574 8.71635 0.29574 8.28365 0.426256 7.88197C0.574633 7.42531 0.970651 7.02929 1.76269 6.23726L5.06269 2.93726C5.40859 2.59135 5.58154 2.4184 5.78337 2.29472C5.96232 2.18506 6.15741 2.10425 6.36148 2.05526C6.59166 2 6.83625 2 7.32543 2L13.1999 2C14.8801 2 15.7202 2 16.3619 2.32698C16.9264 2.6146 17.3853 3.07354 17.673 3.63803C17.9999 4.27976 17.9999 5.11984 17.9999 6.8Z" fill="url(#1752500502801-4229323_roadmap_existing_1_98l8fc22h)" data-glass="blur"></path>
                <path d="M13.1997 14.25V15H7.32567V14.25H13.1997ZM17.2505 10.2002V6.7998C17.2505 5.94745 17.2492 5.35322 17.2114 4.89062C17.1743 4.43693 17.1059 4.176 17.0054 3.97852C16.7897 3.55522 16.4452 3.21084 16.022 2.99512C15.8245 2.8945 15.5635 2.82518 15.1098 2.78809C14.6472 2.75029 14.0521 2.75 13.1997 2.75H7.32567C6.80079 2.75 6.66039 2.75446 6.53661 2.78418C6.4091 2.8148 6.28709 2.86605 6.17528 2.93457C6.06685 3.00108 5.96404 3.09698 5.59325 3.46777L2.29344 6.76758C1.88868 7.17234 1.6174 7.44459 1.42528 7.6709C1.23917 7.89013 1.1716 8.01668 1.14012 8.11328C1.05855 8.36434 1.05855 8.63566 1.14012 8.88672C1.1716 8.98332 1.23917 9.10987 1.42528 9.3291C1.6174 9.55541 1.88869 9.82766 2.29344 10.2324L5.59325 13.5322C5.96404 13.903 6.06685 13.9989 6.17528 14.0654C6.28709 14.1339 6.4091 14.1852 6.53661 14.2158C6.66039 14.2455 6.80079 14.25 7.32567 14.25V15L6.74657 14.9932C6.67097 14.9897 6.6035 14.9843 6.54051 14.9766L6.3618 14.9443C6.20868 14.9076 6.06038 14.8536 5.9204 14.7822L5.78368 14.7051C5.6828 14.6433 5.58869 14.5697 5.47704 14.4678L5.06297 14.0625L1.76317 10.7627C1.06995 10.0695 0.679606 9.67977 0.493639 9.28711L0.426256 9.11816C0.29574 8.71648 0.29574 8.28352 0.426256 7.88184C0.537523 7.53944 0.788444 7.23138 1.24071 6.76465L1.76317 6.2373L5.06297 2.9375C5.32238 2.67809 5.48427 2.51547 5.63426 2.39844L5.78368 2.29492C5.91791 2.21267 6.06106 2.14619 6.21044 2.09766L6.3618 2.05566C6.47689 2.02803 6.59549 2.01374 6.74657 2.00684L7.32567 2H13.1997C14.8797 2 15.7201 2.00027 16.3618 2.32715C16.9262 2.61473 17.3857 3.07331 17.6733 3.6377C18.0003 4.27941 18.0005 5.11978 18.0005 6.7998V10.2002L17.9946 11.3125C17.9793 12.2877 17.9186 12.881 17.6733 13.3623L17.5571 13.5684C17.2689 14.0383 16.8557 14.4212 16.3618 14.6729C15.7201 14.9997 14.8797 15 13.1997 15V14.25C14.0521 14.25 14.6472 14.2497 15.1098 14.2119C15.5635 14.1748 15.8245 14.1055 16.022 14.0049C16.4452 13.7892 16.7897 13.4448 17.0054 13.0215C17.1059 12.824 17.1743 12.5631 17.2114 12.1094C17.2492 11.6468 17.2505 11.0525 17.2505 10.2002Z" fill="url(#1752500502801-4229323_roadmap_existing_2_8g84ev6s3)"></path>
                <defs>
                  <linearGradient id="1752500502801-4229323_roadmap_existing_0_x1tvi5p96" x1="14.836" y1="9" x2="14.836" y2="22" gradientUnits="userSpaceOnUse">
                    <stop stop-color="#575757"></stop>
                    <stop offset="1" stop-color="#151515"></stop>
                  </linearGradient>
                  <linearGradient id="1752500502801-4229323_roadmap_existing_1_98l8fc22h" x1="9.164" y1="2" x2="9.164" y2="15" gradientUnits="userSpaceOnUse">
                    <stop stop-color="#E3E3E5" stop-opacity=".6"></stop>
                    <stop offset="1" stop-color="#BBBBC0" stop-opacity=".6"></stop>
                  </linearGradient>
                  <linearGradient id="1752500502801-4229323_roadmap_existing_2_8g84ev6s3" x1="9.164" y1="2" x2="9.164" y2="9.528" gradientUnits="userSpaceOnUse">
                    <stop stop-color="#fff"></stop>
                    <stop offset="1" stop-color="#fff" stop-opacity="0"></stop>
                  </linearGradient>
                  <filter id="1752500502801-4229323_roadmap_filter_zbd5an8rb" x="-100%" y="-100%" width="400%" height="400%" filterUnits="objectBoundingBox" primitiveUnits="userSpaceOnUse">
                    <feGaussianBlur stdDeviation="2" x="0%" y="0%" width="100%" height="100%" in="SourceGraphic" edgeMode="none" result="blur"></feGaussianBlur>
                  </filter>
                  <clipPath id="1752500502801-4229323_roadmap_clipPath_2g2ybi1sn">
                    <path d="M17.9999 6.8L17.9999 10.2C17.9999 11.8802 17.9999 12.7202 17.673 13.362C17.3853 13.9265 16.9264 14.3854 16.3619 14.673C15.7202 15 14.8801 15 13.1999 15H7.32543C6.83624 15 6.59165 15 6.36148 14.9447C6.15741 14.8957 5.96232 14.8149 5.78337 14.7053C5.58154 14.5816 5.40859 14.4086 5.06268 14.0627L1.76268 10.7627C0.97065 9.97071 0.574633 9.57469 0.426256 9.11803C0.29574 8.71635 0.29574 8.28365 0.426256 7.88197C0.574633 7.42531 0.970651 7.02929 1.76269 6.23726L5.06269 2.93726C5.40859 2.59135 5.58154 2.4184 5.78337 2.29472C5.96232 2.18506 6.15741 2.10425 6.36148 2.05526C6.59166 2 6.83625 2 7.32543 2L13.1999 2C14.8801 2 15.7202 2 16.3619 2.32698C16.9264 2.6146 17.3853 3.07354 17.673 3.63803C17.9999 4.27976 17.9999 5.11984 17.9999 6.8Z" fill="url(#1752500502801-4229323_roadmap_existing_1_98l8fc22h)"></path>
                  </clipPath>
                  <mask id="1752500502801-4229323_roadmap_mask_40r2zbvdd">
                    <rect width="100%" height="100%" fill="#FFF"></rect>
                    <path d="M17.9999 6.8L17.9999 10.2C17.9999 11.8802 17.9999 12.7202 17.673 13.362C17.3853 13.9265 16.9264 14.3854 16.3619 14.673C15.7202 15 14.8801 15 13.1999 15H7.32543C6.83624 15 6.59165 15 6.36148 14.9447C6.15741 14.8957 5.96232 14.8149 5.78337 14.7053C5.58154 14.5816 5.40859 14.4086 5.06268 14.0627L1.76268 10.7627C0.97065 9.97071 0.574633 9.57469 0.426256 9.11803C0.29574 8.71635 0.29574 8.28365 0.426256 7.88197C0.574633 7.42531 0.970651 7.02929 1.76269 6.23726L5.06269 2.93726C5.40859 2.59135 5.58154 2.4184 5.78337 2.29472C5.96232 2.18506 6.15741 2.10425 6.36148 2.05526C6.59166 2 6.83625 2 7.32543 2L13.1999 2C14.8801 2 15.7202 2 16.3619 2.32698C16.9264 2.6146 17.3853 3.07354 17.673 3.63803C17.9999 4.27976 17.9999 5.11984 17.9999 6.8Z" fill="#000"></path>
                  </mask>
                </defs>
              </g>
            </svg>