<svg xmlns="http://www.w3.org/2000/svg" width="24" height="24" viewBox="0 0 24 24">
              <title>grid-2</title>
              <g fill="none">
                <path d="M7 13C8.39998 13 9.10001 13.0001 9.63477 13.2725C10.1052 13.5121 10.4879 13.8948 10.7275 14.3652C10.9999 14.9 11 15.6 11 17V18C11 19.4 10.9999 20.1 10.7275 20.6348C10.4879 21.1052 10.1052 21.4879 9.63477 21.7275C9.10001 21.9999 8.39998 22 7 22H6C4.60002 22 3.89999 21.9999 3.36523 21.7275C2.89483 21.4879 2.51214 21.1052 2.27246 20.6348C2.00007 20.1 2 19.4 2 18V17C2 15.6 2.00007 14.9 2.27246 14.3652C2.51214 13.8948 2.89483 13.5121 3.36523 13.2725C3.89999 13.0001 4.60002 13 6 13H7ZM18 13C19.4 13 20.1 13.0001 20.6348 13.2725C21.1052 13.5121 21.4879 13.8948 21.7275 14.3652C21.9999 14.9 22 15.6 22 17V18C22 19.4 21.9999 20.1 21.7275 20.6348C21.4879 21.1052 21.1052 21.4879 20.6348 21.7275C20.1 21.9999 19.4 22 18 22H17C15.6 22 14.9 21.9999 14.3652 21.7275C13.8948 21.4879 13.5121 21.1052 13.2725 20.6348C13.0001 20.1 13 19.4 13 18V17C13 15.6 13.0001 14.9 13.2725 14.3652C13.5121 13.8948 13.8948 13.5121 14.3652 13.2725C14.9 13.0001 15.6 13 17 13H18ZM7 2C8.39998 2 9.10001 2.00007 9.63477 2.27246C10.1052 2.51214 10.4879 2.89483 10.7275 3.36523C10.9999 3.89999 11 4.60002 11 6V7C11 8.39998 10.9999 9.10001 10.7275 9.63477C10.4879 10.1052 10.1052 10.4879 9.63477 10.7275C9.10001 10.9999 8.39998 11 7 11H6C4.60002 11 3.89999 10.9999 3.36523 10.7275C2.89483 10.4879 2.51214 10.1052 2.27246 9.63477C2.00007 9.10001 2 8.39998 2 7V6C2 4.60002 2.00007 3.89999 2.27246 3.36523C2.51214 2.89483 2.89483 2.51214 3.36523 2.27246C3.89999 2.00007 4.60002 2 6 2H7ZM18 2C19.4 2 20.1 2.00007 20.6348 2.27246C21.1052 2.51214 21.4879 2.89483 21.7275 3.36523C21.9999 3.89999 22 4.60002 22 6V7C22 8.39998 21.9999 9.10001 21.7275 9.63477C21.4879 10.1052 21.1052 10.4879 20.6348 10.7275C20.1 10.9999 19.4 11 18 11H17C15.6 11 14.9 10.9999 14.3652 10.7275C13.8948 10.4879 13.5121 10.1052 13.2725 9.63477C13.0001 9.10001 13 8.39998 13 7V6C13 4.60002 13.0001 3.89999 13.2725 3.36523C13.5121 2.89483 13.8948 2.51214 14.3652 2.27246C14.9 2.00007 15.6 2 17 2H18Z" fill="url(#1752500502788-6236163_grid-2_existing_0_m3bjlqlh3)" data-glass="origin" mask="url(#1752500502788-6236163_grid-2_mask_nbrqki8fd)"></path>
                <path d="M7 13C8.39998 13 9.10001 13.0001 9.63477 13.2725C10.1052 13.5121 10.4879 13.8948 10.7275 14.3652C10.9999 14.9 11 15.6 11 17V18C11 19.4 10.9999 20.1 10.7275 20.6348C10.4879 21.1052 10.1052 21.4879 9.63477 21.7275C9.10001 21.9999 8.39998 22 7 22H6C4.60002 22 3.89999 21.9999 3.36523 21.7275C2.89483 21.4879 2.51214 21.1052 2.27246 20.6348C2.00007 20.1 2 19.4 2 18V17C2 15.6 2.00007 14.9 2.27246 14.3652C2.51214 13.8948 2.89483 13.5121 3.36523 13.2725C3.89999 13.0001 4.60002 13 6 13H7ZM18 13C19.4 13 20.1 13.0001 20.6348 13.2725C21.1052 13.5121 21.4879 13.8948 21.7275 14.3652C21.9999 14.9 22 15.6 22 17V18C22 19.4 21.9999 20.1 21.7275 20.6348C21.4879 21.1052 21.1052 21.4879 20.6348 21.7275C20.1 21.9999 19.4 22 18 22H17C15.6 22 14.9 21.9999 14.3652 21.7275C13.8948 21.4879 13.5121 21.1052 13.2725 20.6348C13.0001 20.1 13 19.4 13 18V17C13 15.6 13.0001 14.9 13.2725 14.3652C13.5121 13.8948 13.8948 13.5121 14.3652 13.2725C14.9 13.0001 15.6 13 17 13H18ZM7 2C8.39998 2 9.10001 2.00007 9.63477 2.27246C10.1052 2.51214 10.4879 2.89483 10.7275 3.36523C10.9999 3.89999 11 4.60002 11 6V7C11 8.39998 10.9999 9.10001 10.7275 9.63477C10.4879 10.1052 10.1052 10.4879 9.63477 10.7275C9.10001 10.9999 8.39998 11 7 11H6C4.60002 11 3.89999 10.9999 3.36523 10.7275C2.89483 10.4879 2.51214 10.1052 2.27246 9.63477C2.00007 9.10001 2 8.39998 2 7V6C2 4.60002 2.00007 3.89999 2.27246 3.36523C2.51214 2.89483 2.89483 2.51214 3.36523 2.27246C3.89999 2.00007 4.60002 2 6 2H7ZM18 2C19.4 2 20.1 2.00007 20.6348 2.27246C21.1052 2.51214 21.4879 2.89483 21.7275 3.36523C21.9999 3.89999 22 4.60002 22 6V7C22 8.39998 21.9999 9.10001 21.7275 9.63477C21.4879 10.1052 21.1052 10.4879 20.6348 10.7275C20.1 10.9999 19.4 11 18 11H17C15.6 11 14.9 10.9999 14.3652 10.7275C13.8948 10.4879 13.5121 10.1052 13.2725 9.63477C13.0001 9.10001 13 8.39998 13 7V6C13 4.60002 13.0001 3.89999 13.2725 3.36523C13.5121 2.89483 13.8948 2.51214 14.3652 2.27246C14.9 2.00007 15.6 2 17 2H18Z" fill="url(#1752500502788-6236163_grid-2_existing_0_m3bjlqlh3)" data-glass="clone" filter="url(#1752500502788-6236163_grid-2_filter_6el0tyw10)" clip-path="url(#1752500502788-6236163_grid-2_clipPath_sq6e7ztdz)"></path>
                <rect x="6" y="6" width="12" height="12" rx="3" fill="url(#1752500502788-6236163_grid-2_existing_1_jbut9baiw)" data-glass="blur"></rect>
                <path d="M13.2002 17.25V18H10.7998V17.25H13.2002ZM17.25 13.2002V10.7998C17.25 9.94745 17.2497 9.35322 17.2119 8.89062C17.1748 8.4368 17.1055 8.17602 17.0049 7.97852C16.7892 7.55515 16.4448 7.21083 16.0215 6.99512C15.824 6.89449 15.5632 6.82517 15.1094 6.78809C14.6468 6.75029 14.0525 6.75 13.2002 6.75H10.7998C9.94745 6.75 9.35322 6.75029 8.89062 6.78809C8.4368 6.82517 8.17602 6.89449 7.97852 6.99512C7.55515 7.21083 7.21083 7.55515 6.99512 7.97852C6.89449 8.17602 6.82517 8.4368 6.78809 8.89062C6.75029 9.35322 6.75 9.94745 6.75 10.7998V13.2002C6.75 14.0525 6.75029 14.6468 6.78809 15.1094C6.82517 15.5632 6.89449 15.824 6.99512 16.0215C7.21083 16.4448 7.55515 16.7892 7.97852 17.0049C8.17602 17.1055 8.4368 17.1748 8.89062 17.2119C9.35322 17.2497 9.94745 17.25 10.7998 17.25V18C9.11978 18 8.27941 17.9998 7.6377 17.6729C7.14381 17.4211 6.73057 17.0383 6.44238 16.5684L6.32715 16.3623C6.0819 15.881 6.02021 15.2877 6.00488 14.3125L6 13.2002V10.7998C6 9.22468 6.00007 8.38795 6.26953 7.76074L6.32715 7.6377C6.57888 7.14381 6.96166 6.73057 7.43164 6.44238L7.6377 6.32715C8.27941 6.00018 9.11978 6 10.7998 6H13.2002L14.3125 6.00488C15.2877 6.02021 15.881 6.0819 16.3623 6.32715C16.9265 6.61472 17.3853 7.07347 17.6729 7.6377C17.9998 8.27941 18 9.11978 18 10.7998V13.2002L17.9951 14.3125C17.9798 15.2877 17.9181 15.881 17.6729 16.3623L17.5576 16.5684C17.2694 17.0383 16.8562 17.4211 16.3623 17.6729L16.2393 17.7305C15.7793 17.9281 15.2066 17.9811 14.3125 17.9951L13.2002 18V17.25C14.0525 17.25 14.6468 17.2497 15.1094 17.2119C15.5632 17.1748 15.824 17.1055 16.0215 17.0049C16.4448 16.7892 16.7892 16.4448 17.0049 16.0215C17.1055 15.824 17.1748 15.5632 17.2119 15.1094C17.2497 14.6468 17.25 14.0525 17.25 13.2002Z" fill="url(#1752500502788-6236163_grid-2_existing_2_atabi0p61)"></path>
                <defs>
                  <linearGradient id="1752500502788-6236163_grid-2_existing_0_m3bjlqlh3" x1="12" y1="2" x2="12" y2="22" gradientUnits="userSpaceOnUse">
                    <stop stop-color="#575757"></stop>
                    <stop offset="1" stop-color="#151515"></stop>
                  </linearGradient>
                  <linearGradient id="1752500502788-6236163_grid-2_existing_1_jbut9baiw" x1="12" y1="6" x2="12" y2="18" gradientUnits="userSpaceOnUse">
                    <stop stop-color="#E3E3E5" stop-opacity=".6"></stop>
                    <stop offset="1" stop-color="#BBBBC0" stop-opacity=".6"></stop>
                  </linearGradient>
                  <linearGradient id="1752500502788-6236163_grid-2_existing_2_atabi0p61" x1="12" y1="6" x2="12" y2="12.949" gradientUnits="userSpaceOnUse">
                    <stop stop-color="#fff"></stop>
                    <stop offset="1" stop-color="#fff" stop-opacity="0"></stop>
                  </linearGradient>
                  <filter id="1752500502788-6236163_grid-2_filter_6el0tyw10" x="-100%" y="-100%" width="400%" height="400%" filterUnits="objectBoundingBox" primitiveUnits="userSpaceOnUse">
                    <feGaussianBlur stdDeviation="2" x="0%" y="0%" width="100%" height="100%" in="SourceGraphic" edgeMode="none" result="blur"></feGaussianBlur>
                  </filter>
                  <clipPath id="1752500502788-6236163_grid-2_clipPath_sq6e7ztdz">
                    <rect x="6" y="6" width="12" height="12" rx="3" fill="url(#1752500502788-6236163_grid-2_existing_1_jbut9baiw)"></rect>
                  </clipPath>
                  <mask id="1752500502788-6236163_grid-2_mask_nbrqki8fd">
                    <rect width="100%" height="100%" fill="#FFF"></rect>
                    <rect x="6" y="6" width="12" height="12" rx="3" fill="#000"></rect>
                  </mask>
                </defs>
              </g>
            </svg>