<svg xmlns="http://www.w3.org/2000/svg" width="24" height="24" viewBox="0 0 24 24">
              <title>money-bill</title>
              <g fill="none">
                <path d="M13.5996 2C15.8398 2 16.9608 1.99957 17.8164 2.43555C18.5689 2.81902 19.181 3.43109 19.5645 4.18359C20.0004 5.03924 20 6.16018 20 8.40039V10.5996C20 11.4695 19.9982 12.1707 19.9727 12.7529C20.5853 13.0947 21 13.7486 21 14.5C21 15.6046 20.1046 16.5 19 16.5C18.7169 16.5 18.4481 16.44 18.2041 16.334C18.079 16.4167 17.951 16.4959 17.8164 16.5645C16.9608 17.0004 15.8398 17 13.5996 17H7.40039C5.16018 17 4.03924 17.0004 3.18359 16.5645C2.43109 16.181 1.81902 15.5689 1.43555 14.8164C0.999573 13.9608 1 12.8398 1 10.5996V8.40039C1 6.16018 0.999573 5.03924 1.43555 4.18359C1.81902 3.43109 2.43109 2.81902 3.18359 2.43555C4.03924 1.99957 5.16018 2 7.40039 2H13.5996Z" fill="url(#1752500502796-9021023_money-bill_existing_0_r3y6h6ipg)" data-glass="origin" mask="url(#1752500502796-9021023_money-bill_mask_eixc8vhgm)"></path>
                <path d="M13.5996 2C15.8398 2 16.9608 1.99957 17.8164 2.43555C18.5689 2.81902 19.181 3.43109 19.5645 4.18359C20.0004 5.03924 20 6.16018 20 8.40039V10.5996C20 11.4695 19.9982 12.1707 19.9727 12.7529C20.5853 13.0947 21 13.7486 21 14.5C21 15.6046 20.1046 16.5 19 16.5C18.7169 16.5 18.4481 16.44 18.2041 16.334C18.079 16.4167 17.951 16.4959 17.8164 16.5645C16.9608 17.0004 15.8398 17 13.5996 17H7.40039C5.16018 17 4.03924 17.0004 3.18359 16.5645C2.43109 16.181 1.81902 15.5689 1.43555 14.8164C0.999573 13.9608 1 12.8398 1 10.5996V8.40039C1 6.16018 0.999573 5.03924 1.43555 4.18359C1.81902 3.43109 2.43109 2.81902 3.18359 2.43555C4.03924 1.99957 5.16018 2 7.40039 2H13.5996Z" fill="url(#1752500502796-9021023_money-bill_existing_0_r3y6h6ipg)" data-glass="clone" filter="url(#1752500502796-9021023_money-bill_filter_ujbe1nhgm)" clip-path="url(#1752500502796-9021023_money-bill_clipPath_w3hwgwzi0)"></path>
                <path d="M16.5996 7C18.8398 7 19.9608 6.99957 20.8164 7.43555C21.5689 7.81902 22.181 8.43109 22.5645 9.18359C23.0004 10.0392 23 11.1602 23 13.4004V15.5996C23 17.8398 23.0004 18.9608 22.5645 19.8164C22.181 20.5689 21.5689 21.181 20.8164 21.5645C19.9608 22.0004 18.8398 22 16.5996 22H10.4004C8.16018 22 7.03924 22.0004 6.18359 21.5645C5.43109 21.181 4.81902 20.5689 4.43555 19.8164C3.99957 18.9608 4 17.8398 4 15.5996V13.4004C4 11.1602 3.99957 10.0392 4.43555 9.18359C4.81902 8.43109 5.43109 7.81902 6.18359 7.43555C7.03924 6.99957 8.16018 7 10.4004 7H16.5996ZM13.5 12C12.1193 12 11 13.1193 11 14.5C11 15.8807 12.1193 17 13.5 17C14.8807 17 16 15.8807 16 14.5C16 13.1193 14.8807 12 13.5 12ZM8.25 13.25C7.55964 13.25 7 13.8096 7 14.5C7 15.1904 7.55964 15.75 8.25 15.75C8.94036 15.75 9.5 15.1904 9.5 14.5C9.5 13.8096 8.94036 13.25 8.25 13.25ZM18.75 13.25C18.0596 13.25 17.5 13.8096 17.5 14.5C17.5 15.1904 18.0596 15.75 18.75 15.75C19.4404 15.75 20 15.1904 20 14.5C20 13.8096 19.4404 13.25 18.75 13.25Z" fill="url(#1752500502796-9021023_money-bill_existing_1_ele0nzcpm)" data-glass="blur"></path>
                <path d="M16.5996 21.25V22H10.4004V21.25H16.5996ZM22.25 15.5996V13.4004C22.25 12.268 22.2497 11.4634 22.1982 10.834C22.1475 10.2134 22.0506 9.82889 21.8955 9.52441C21.5839 8.91305 21.087 8.41605 20.4756 8.10449C20.1711 7.94936 19.7866 7.85247 19.166 7.80176C18.5367 7.75035 17.732 7.75 16.5996 7.75H10.4004C9.26798 7.75 8.46335 7.75035 7.83398 7.80176C7.21336 7.85247 6.82889 7.94936 6.52441 8.10449C5.91304 8.41605 5.41605 8.91305 5.10449 9.52441C4.94936 9.82889 4.85247 10.2134 4.80176 10.834C4.75035 11.4633 4.75 12.268 4.75 13.4004V15.5996C4.75 16.732 4.75035 17.5367 4.80176 18.166C4.85247 18.7866 4.94936 19.1711 5.10449 19.4756C5.41605 20.087 5.91304 20.5839 6.52441 20.8955C6.82889 21.0506 7.21336 21.1475 7.83398 21.1982C8.46335 21.2497 9.26798 21.25 10.4004 21.25V22L8.91602 21.9932C7.72431 21.9744 6.96088 21.9041 6.34766 21.6406L6.18359 21.5645C5.52512 21.2289 4.97413 20.7183 4.58984 20.0918L4.43555 19.8164C3.99957 18.9608 4 17.8398 4 15.5996V13.4004C4 11.1602 3.99957 10.0392 4.43555 9.18359C4.81902 8.43109 5.43109 7.81902 6.18359 7.43555C6.82525 7.10861 7.61607 7.02728 8.91602 7.00684L10.4004 7H16.5996C18.8398 7 19.9608 6.99957 20.8164 7.43555C21.5689 7.81902 22.181 8.43109 22.5645 9.18359C23.0004 10.0392 23 11.1602 23 13.4004V15.5996C23 17.8398 23.0004 18.9608 22.5645 19.8164L22.4102 20.0918C22.0259 20.7183 21.4749 21.2289 20.8164 21.5645L20.6523 21.6406C19.816 21.9999 18.6999 22 16.5996 22V21.25C17.732 21.25 18.5367 21.2497 19.166 21.1982C19.7866 21.1475 20.1711 21.0506 20.4756 20.8955C21.087 20.5839 21.5839 20.087 21.8955 19.4756C22.0506 19.1711 22.1475 18.7866 22.1982 18.166C22.2497 17.5367 22.25 16.732 22.25 15.5996Z" fill="url(#1752500502796-9021023_money-bill_existing_2_0yl733a2m)"></path>
                <defs>
                  <linearGradient id="1752500502796-9021023_money-bill_existing_0_r3y6h6ipg" x1="11" y1="2" x2="11" y2="17" gradientUnits="userSpaceOnUse">
                    <stop stop-color="#575757"></stop>
                    <stop offset="1" stop-color="#151515"></stop>
                  </linearGradient>
                  <linearGradient id="1752500502796-9021023_money-bill_existing_1_ele0nzcpm" x1="13.5" y1="7" x2="13.5" y2="22" gradientUnits="userSpaceOnUse">
                    <stop stop-color="#E3E3E5" stop-opacity=".6"></stop>
                    <stop offset="1" stop-color="#BBBBC0" stop-opacity=".6"></stop>
                  </linearGradient>
                  <linearGradient id="1752500502796-9021023_money-bill_existing_2_0yl733a2m" x1="13.5" y1="7" x2="13.5" y2="15.687" gradientUnits="userSpaceOnUse">
                    <stop stop-color="#fff"></stop>
                    <stop offset="1" stop-color="#fff" stop-opacity="0"></stop>
                  </linearGradient>
                  <filter id="1752500502796-9021023_money-bill_filter_ujbe1nhgm" x="-100%" y="-100%" width="400%" height="400%" filterUnits="objectBoundingBox" primitiveUnits="userSpaceOnUse">
                    <feGaussianBlur stdDeviation="2" x="0%" y="0%" width="100%" height="100%" in="SourceGraphic" edgeMode="none" result="blur"></feGaussianBlur>
                  </filter>
                  <clipPath id="1752500502796-9021023_money-bill_clipPath_w3hwgwzi0">
                    <path d="M16.5996 7C18.8398 7 19.9608 6.99957 20.8164 7.43555C21.5689 7.81902 22.181 8.43109 22.5645 9.18359C23.0004 10.0392 23 11.1602 23 13.4004V15.5996C23 17.8398 23.0004 18.9608 22.5645 19.8164C22.181 20.5689 21.5689 21.181 20.8164 21.5645C19.9608 22.0004 18.8398 22 16.5996 22H10.4004C8.16018 22 7.03924 22.0004 6.18359 21.5645C5.43109 21.181 4.81902 20.5689 4.43555 19.8164C3.99957 18.9608 4 17.8398 4 15.5996V13.4004C4 11.1602 3.99957 10.0392 4.43555 9.18359C4.81902 8.43109 5.43109 7.81902 6.18359 7.43555C7.03924 6.99957 8.16018 7 10.4004 7H16.5996ZM13.5 12C12.1193 12 11 13.1193 11 14.5C11 15.8807 12.1193 17 13.5 17C14.8807 17 16 15.8807 16 14.5C16 13.1193 14.8807 12 13.5 12ZM8.25 13.25C7.55964 13.25 7 13.8096 7 14.5C7 15.1904 7.55964 15.75 8.25 15.75C8.94036 15.75 9.5 15.1904 9.5 14.5C9.5 13.8096 8.94036 13.25 8.25 13.25ZM18.75 13.25C18.0596 13.25 17.5 13.8096 17.5 14.5C17.5 15.1904 18.0596 15.75 18.75 15.75C19.4404 15.75 20 15.1904 20 14.5C20 13.8096 19.4404 13.25 18.75 13.25Z" fill="url(#1752500502796-9021023_money-bill_existing_1_ele0nzcpm)"></path>
                  </clipPath>
                  <mask id="1752500502796-9021023_money-bill_mask_eixc8vhgm">
                    <rect width="100%" height="100%" fill="#FFF"></rect>
                    <path d="M16.5996 7C18.8398 7 19.9608 6.99957 20.8164 7.43555C21.5689 7.81902 22.181 8.43109 22.5645 9.18359C23.0004 10.0392 23 11.1602 23 13.4004V15.5996C23 17.8398 23.0004 18.9608 22.5645 19.8164C22.181 20.5689 21.5689 21.181 20.8164 21.5645C19.9608 22.0004 18.8398 22 16.5996 22H10.4004C8.16018 22 7.03924 22.0004 6.18359 21.5645C5.43109 21.181 4.81902 20.5689 4.43555 19.8164C3.99957 18.9608 4 17.8398 4 15.5996V13.4004C4 11.1602 3.99957 10.0392 4.43555 9.18359C4.81902 8.43109 5.43109 7.81902 6.18359 7.43555C7.03924 6.99957 8.16018 7 10.4004 7H16.5996ZM13.5 12C12.1193 12 11 13.1193 11 14.5C11 15.8807 12.1193 17 13.5 17C14.8807 17 16 15.8807 16 14.5C16 13.1193 14.8807 12 13.5 12ZM8.25 13.25C7.55964 13.25 7 13.8096 7 14.5C7 15.1904 7.55964 15.75 8.25 15.75C8.94036 15.75 9.5 15.1904 9.5 14.5C9.5 13.8096 8.94036 13.25 8.25 13.25ZM18.75 13.25C18.0596 13.25 17.5 13.8096 17.5 14.5C17.5 15.1904 18.0596 15.75 18.75 15.75C19.4404 15.75 20 15.1904 20 14.5C20 13.8096 19.4404 13.25 18.75 13.25Z" fill="#000"></path>
                  </mask>
                </defs>
              </g>
            </svg>