<svg xmlns="http://www.w3.org/2000/svg" width="24" height="24" viewBox="0 0 24 24">
              <title>circle-question</title>
              <g fill="none">
                <path d="M10 18.0098V18C10 16.8954 10.8954 16 12 16C13.1046 16 14 16.8954 14 18V18.0098C14 19.1143 13.1046 20.0098 12 20.0098C10.8954 20.0098 10 19.1143 10 18.0098ZM13 9.5C13 8.94772 12.5523 8.5 12 8.5C11.4477 8.5 11 8.94772 11 9.5C11 10.6046 10.1046 11.5 9 11.5C7.89543 11.5 7 10.6046 7 9.5C7 6.73858 9.23858 4.5 12 4.5C14.7614 4.5 17 6.73858 17 9.5C17 11.3954 15.9442 13.0415 14.3984 13.8877C14.2927 13.9456 14.1982 14.0068 14.1201 14.0664C14.0611 14.1114 14.0192 14.1508 13.9902 14.1807C13.8988 15.2005 13.0436 16 12 16C10.8954 16 10 15.1046 10 14C10 12.9774 10.4464 12.1659 10.9287 11.6035C11.4024 11.0512 11.9791 10.6523 12.4785 10.3789C12.7936 10.2062 13 9.87572 13 9.5Z" fill="url(#1752500502776-6922995_circle-question_existing_0_u1lnsasju)" data-glass="origin" mask="url(#1752500502776-6922995_circle-question_mask_asjsfuc3h)"></path>
                <path d="M10 18.0098V18C10 16.8954 10.8954 16 12 16C13.1046 16 14 16.8954 14 18V18.0098C14 19.1143 13.1046 20.0098 12 20.0098C10.8954 20.0098 10 19.1143 10 18.0098ZM13 9.5C13 8.94772 12.5523 8.5 12 8.5C11.4477 8.5 11 8.94772 11 9.5C11 10.6046 10.1046 11.5 9 11.5C7.89543 11.5 7 10.6046 7 9.5C7 6.73858 9.23858 4.5 12 4.5C14.7614 4.5 17 6.73858 17 9.5C17 11.3954 15.9442 13.0415 14.3984 13.8877C14.2927 13.9456 14.1982 14.0068 14.1201 14.0664C14.0611 14.1114 14.0192 14.1508 13.9902 14.1807C13.8988 15.2005 13.0436 16 12 16C10.8954 16 10 15.1046 10 14C10 12.9774 10.4464 12.1659 10.9287 11.6035C11.4024 11.0512 11.9791 10.6523 12.4785 10.3789C12.7936 10.2062 13 9.87572 13 9.5Z" fill="url(#1752500502776-6922995_circle-question_existing_0_u1lnsasju)" data-glass="clone" filter="url(#1752500502776-6922995_circle-question_filter_l7zis7cov)" clip-path="url(#1752500502776-6922995_circle-question_clipPath_puua9pgph)"></path>
                <path fill-rule="evenodd" clip-rule="evenodd" d="M12 1C18.0751 1 23 5.92487 23 12C23 18.0751 18.0751 23 12 23C5.92487 23 1 18.0751 1 12C1 5.92487 5.92487 1 12 1ZM12 16.5C11.3096 16.5 10.75 17.0596 10.75 17.75V17.7598C10.75 18.4501 11.3096 19.0098 12 19.0098C12.6904 19.0098 13.25 18.4501 13.25 17.7598V17.75C13.25 17.0596 12.6904 16.5 12 16.5ZM12 5.5C9.79086 5.5 8 7.29086 8 9.5C8 10.0523 8.44772 10.5 9 10.5C9.55229 10.5 10 10.0523 10 9.5C10 8.39543 10.8954 7.5 12 7.5C13.1046 7.5 14 8.39543 14 9.5C14 10.2557 13.5809 10.9149 12.958 11.2559C12.5267 11.492 12.0587 11.8211 11.6875 12.2539C11.3119 12.6918 11 13.2816 11 14C11 14.5523 11.4477 15 12 15C12.5523 15 13 14.5523 13 14C13 13.89 13.0442 13.7454 13.2061 13.5566C13.3724 13.3627 13.6236 13.1724 13.9189 13.0107C15.157 12.3329 16 11.0155 16 9.5C16 7.29086 14.2091 5.5 12 5.5Z" fill="url(#1752500502776-6922995_circle-question_existing_1_nny9n79av)" data-glass="blur"></path>
                <path d="M12 1C18.0751 1 23 5.92487 23 12C23 18.0751 18.0751 23 12 23C5.92487 23 1 18.0751 1 12C1 5.92487 5.92487 1 12 1ZM12 1.75C6.33908 1.75 1.75 6.33908 1.75 12C1.75 17.6609 6.33908 22.25 12 22.25C17.6609 22.25 22.25 17.6609 22.25 12C22.25 6.33908 17.6609 1.75 12 1.75Z" fill="url(#1752500502776-6922995_circle-question_existing_2_17m4uevwf)"></path>
                <defs>
                  <linearGradient id="1752500502776-6922995_circle-question_existing_0_u1lnsasju" x1="12" y1="4.5" x2="12" y2="20.01" gradientUnits="userSpaceOnUse">
                    <stop stop-color="#575757"></stop>
                    <stop offset="1" stop-color="#151515"></stop>
                  </linearGradient>
                  <linearGradient id="1752500502776-6922995_circle-question_existing_1_nny9n79av" x1="12" y1="1" x2="12" y2="23" gradientUnits="userSpaceOnUse">
                    <stop stop-color="#E3E3E5" stop-opacity=".6"></stop>
                    <stop offset="1" stop-color="#BBBBC0" stop-opacity=".6"></stop>
                  </linearGradient>
                  <linearGradient id="1752500502776-6922995_circle-question_existing_2_17m4uevwf" x1="12" y1="1" x2="12" y2="13.74" gradientUnits="userSpaceOnUse">
                    <stop stop-color="#fff"></stop>
                    <stop offset="1" stop-color="#fff" stop-opacity="0"></stop>
                  </linearGradient>
                  <filter id="1752500502776-6922995_circle-question_filter_l7zis7cov" x="-100%" y="-100%" width="400%" height="400%" filterUnits="objectBoundingBox" primitiveUnits="userSpaceOnUse">
                    <feGaussianBlur stdDeviation="2" x="0%" y="0%" width="100%" height="100%" in="SourceGraphic" edgeMode="none" result="blur"></feGaussianBlur>
                  </filter>
                  <clipPath id="1752500502776-6922995_circle-question_clipPath_puua9pgph">
                    <path fill-rule="evenodd" clip-rule="evenodd" d="M12 1C18.0751 1 23 5.92487 23 12C23 18.0751 18.0751 23 12 23C5.92487 23 1 18.0751 1 12C1 5.92487 5.92487 1 12 1ZM12 16.5C11.3096 16.5 10.75 17.0596 10.75 17.75V17.7598C10.75 18.4501 11.3096 19.0098 12 19.0098C12.6904 19.0098 13.25 18.4501 13.25 17.7598V17.75C13.25 17.0596 12.6904 16.5 12 16.5ZM12 5.5C9.79086 5.5 8 7.29086 8 9.5C8 10.0523 8.44772 10.5 9 10.5C9.55229 10.5 10 10.0523 10 9.5C10 8.39543 10.8954 7.5 12 7.5C13.1046 7.5 14 8.39543 14 9.5C14 10.2557 13.5809 10.9149 12.958 11.2559C12.5267 11.492 12.0587 11.8211 11.6875 12.2539C11.3119 12.6918 11 13.2816 11 14C11 14.5523 11.4477 15 12 15C12.5523 15 13 14.5523 13 14C13 13.89 13.0442 13.7454 13.2061 13.5566C13.3724 13.3627 13.6236 13.1724 13.9189 13.0107C15.157 12.3329 16 11.0155 16 9.5C16 7.29086 14.2091 5.5 12 5.5Z" fill="url(#1752500502776-6922995_circle-question_existing_1_nny9n79av)"></path>
                  </clipPath>
                  <mask id="1752500502776-6922995_circle-question_mask_asjsfuc3h">
                    <rect width="100%" height="100%" fill="#FFF"></rect>
                    <path fill-rule="evenodd" clip-rule="evenodd" d="M12 1C18.0751 1 23 5.92487 23 12C23 18.0751 18.0751 23 12 23C5.92487 23 1 18.0751 1 12C1 5.92487 5.92487 1 12 1ZM12 16.5C11.3096 16.5 10.75 17.0596 10.75 17.75V17.7598C10.75 18.4501 11.3096 19.0098 12 19.0098C12.6904 19.0098 13.25 18.4501 13.25 17.7598V17.75C13.25 17.0596 12.6904 16.5 12 16.5ZM12 5.5C9.79086 5.5 8 7.29086 8 9.5C8 10.0523 8.44772 10.5 9 10.5C9.55229 10.5 10 10.0523 10 9.5C10 8.39543 10.8954 7.5 12 7.5C13.1046 7.5 14 8.39543 14 9.5C14 10.2557 13.5809 10.9149 12.958 11.2559C12.5267 11.492 12.0587 11.8211 11.6875 12.2539C11.3119 12.6918 11 13.2816 11 14C11 14.5523 11.4477 15 12 15C12.5523 15 13 14.5523 13 14C13 13.89 13.0442 13.7454 13.2061 13.5566C13.3724 13.3627 13.6236 13.1724 13.9189 13.0107C15.157 12.3329 16 11.0155 16 9.5C16 7.29086 14.2091 5.5 12 5.5Z" fill="#000"></path>
                  </mask>
                </defs>
              </g>
            </svg>