<svg xmlns="http://www.w3.org/2000/svg" width="24" height="24" viewBox="0 0 24 24">
              <title>wallet-content</title>
              <g fill="none">
                <path d="M14.4109 1.93153C16.3338 1.61105 17.2953 1.4508 18.0446 1.72912C18.7021 1.97335 19.2533 2.44027 19.6023 3.04871C20 3.74207 20 4.71679 20 6.66622V10.9338C20 12.3784 20 13.1007 19.7372 13.6866C19.5055 14.203 19.1325 14.6433 18.6612 14.9567C18.1265 15.3123 17.4141 15.431 15.9891 15.6685L7.58912 17.0685C5.6662 17.389 4.70475 17.5492 3.95544 17.2709C3.2979 17.0267 2.74672 16.5598 2.39771 15.9513C2 15.258 2 14.2832 2 12.3338L2 10.777C2 8.36935 2 7.16551 2.43802 6.18911C2.82412 5.32843 3.44583 4.59453 4.23133 4.07218C5.12242 3.47961 6.30989 3.2817 8.68481 2.88588L14.4109 1.93153Z" fill="url(#1752500502812-6140456_wallet-content_existing_0_d1aul02tk)" data-glass="origin" mask="url(#1752500502812-6140456_wallet-content_mask_qkctbcwzb)"></path>
                <path d="M14.4109 1.93153C16.3338 1.61105 17.2953 1.4508 18.0446 1.72912C18.7021 1.97335 19.2533 2.44027 19.6023 3.04871C20 3.74207 20 4.71679 20 6.66622V10.9338C20 12.3784 20 13.1007 19.7372 13.6866C19.5055 14.203 19.1325 14.6433 18.6612 14.9567C18.1265 15.3123 17.4141 15.431 15.9891 15.6685L7.58912 17.0685C5.6662 17.389 4.70475 17.5492 3.95544 17.2709C3.2979 17.0267 2.74672 16.5598 2.39771 15.9513C2 15.258 2 14.2832 2 12.3338L2 10.777C2 8.36935 2 7.16551 2.43802 6.18911C2.82412 5.32843 3.44583 4.59453 4.23133 4.07218C5.12242 3.47961 6.30989 3.2817 8.68481 2.88588L14.4109 1.93153Z" fill="url(#1752500502812-6140456_wallet-content_existing_0_d1aul02tk)" data-glass="clone" filter="url(#1752500502812-6140456_wallet-content_filter_69p3uk0u4)" clip-path="url(#1752500502812-6140456_wallet-content_clipPath_h7u17fg1w)"></path>
                <path d="M15.6 5C17.8402 5 18.9603 5 19.816 5.43597C20.5686 5.81947 21.1805 6.43139 21.564 7.18404C22 8.03969 22 9.15979 22 11.4L22 15.6C22 17.8402 22 18.9603 21.564 19.816C21.1805 20.5686 20.5686 21.1805 19.816 21.564C18.9603 22 17.8402 22 15.6 22L8.4 22C6.15979 22 5.03968 22 4.18404 21.564C3.43139 21.1805 2.81947 20.5686 2.43597 19.816C2 18.9603 2 17.8402 2 15.6L2 11.4C2 9.15979 2 8.03968 2.43597 7.18404C2.81947 6.43139 3.43139 5.81947 4.18404 5.43597C5.03968 5 6.15979 5 8.4 5L15.6 5Z" fill="url(#1752500502812-6140456_wallet-content_existing_1_7cu7qxlwm)" data-glass="blur"></path>
                <path d="M15.5996 21.25V22H8.40039V21.25H15.5996ZM21.25 15.5996V11.4004C21.25 10.268 21.2497 9.46335 21.1982 8.83398C21.1475 8.21336 21.0506 7.82889 20.8955 7.52441C20.5839 6.91305 20.087 6.41605 19.4756 6.10449C19.1711 5.94936 18.7866 5.85247 18.166 5.80176C17.5367 5.75035 16.732 5.75 15.5996 5.75H8.40039C7.26798 5.75 6.46335 5.75035 5.83398 5.80176C5.21336 5.85247 4.82889 5.94936 4.52441 6.10449C3.91305 6.41605 3.41605 6.91305 3.10449 7.52441C2.94936 7.82889 2.85247 8.21336 2.80176 8.83398C2.75035 9.46335 2.75 10.268 2.75 11.4004V15.5996C2.75 16.732 2.75035 17.5367 2.80176 18.166C2.85247 18.7866 2.94936 19.1711 3.10449 19.4756C3.41605 20.087 3.91304 20.5839 4.52441 20.8955C4.82889 21.0506 5.21336 21.1475 5.83398 21.1982C6.46335 21.2497 7.26798 21.25 8.40039 21.25V22L6.91602 21.9932C5.72431 21.9744 4.96088 21.9041 4.34766 21.6406L4.18359 21.5645C3.52512 21.2289 2.97413 20.7183 2.58984 20.0918L2.43555 19.8164C1.99957 18.9608 2 17.8398 2 15.5996V11.4004C2 9.16018 1.99957 8.03924 2.43555 7.18359C2.81902 6.43109 3.43109 5.81902 4.18359 5.43555C4.82525 5.10861 5.61607 5.02728 6.91602 5.00684L8.40039 5H15.5996C17.8398 5 18.9608 4.99957 19.8164 5.43555C20.5689 5.81902 21.181 6.43109 21.5645 7.18359C22.0004 8.03924 22 9.16018 22 11.4004V15.5996C22 17.8398 22.0004 18.9608 21.5645 19.8164L21.4102 20.0918C21.0259 20.7183 20.4749 21.2289 19.8164 21.5645L19.6523 21.6406C18.816 21.9999 17.6999 22 15.5996 22V21.25C16.732 21.25 17.5367 21.2497 18.166 21.1982C18.7866 21.1475 19.1711 21.0506 19.4756 20.8955C20.087 20.5839 20.5839 20.087 20.8955 19.4756C21.0506 19.1711 21.1475 18.7866 21.1982 18.166C21.2497 17.5367 21.25 16.732 21.25 15.5996Z" fill="url(#1752500502812-6140456_wallet-content_existing_2_62o0vvap5)"></path>
                <path d="M22 10H18.5C16.567 10 15 11.567 15 13.5C15 15.433 16.567 17 18.5 17H22C22.5523 17 23 16.5523 23 16V11C23 10.4477 22.5523 10 22 10Z" fill="url(#1752500502812-6140456_wallet-content_existing_3_pdgfrbs9f)"></path>
                <defs>
                  <linearGradient id="1752500502812-6140456_wallet-content_existing_0_d1aul02tk" x1="11" y1="1.586" x2="11" y2="17.414" gradientUnits="userSpaceOnUse">
                    <stop stop-color="#575757"></stop>
                    <stop offset="1" stop-color="#151515"></stop>
                  </linearGradient>
                  <linearGradient id="1752500502812-6140456_wallet-content_existing_1_7cu7qxlwm" x1="22" y1="13.5" x2="2" y2="13.5" gradientUnits="userSpaceOnUse">
                    <stop stop-color="#E3E3E5" stop-opacity=".6"></stop>
                    <stop offset="1" stop-color="#BBBBC0" stop-opacity=".6"></stop>
                  </linearGradient>
                  <linearGradient id="1752500502812-6140456_wallet-content_existing_2_62o0vvap5" x1="12" y1="5" x2="12" y2="14.845" gradientUnits="userSpaceOnUse">
                    <stop stop-color="#fff"></stop>
                    <stop offset="1" stop-color="#fff" stop-opacity="0"></stop>
                  </linearGradient>
                  <linearGradient id="1752500502812-6140456_wallet-content_existing_3_pdgfrbs9f" x1="19" y1="10" x2="19" y2="17" gradientUnits="userSpaceOnUse">
                    <stop stop-color="#575757"></stop>
                    <stop offset="1" stop-color="#151515"></stop>
                  </linearGradient>
                  <filter id="1752500502812-6140456_wallet-content_filter_69p3uk0u4" x="-100%" y="-100%" width="400%" height="400%" filterUnits="objectBoundingBox" primitiveUnits="userSpaceOnUse">
                    <feGaussianBlur stdDeviation="2" x="0%" y="0%" width="100%" height="100%" in="SourceGraphic" edgeMode="none" result="blur"></feGaussianBlur>
                  </filter>
                  <clipPath id="1752500502812-6140456_wallet-content_clipPath_h7u17fg1w">
                    <path d="M15.6 5C17.8402 5 18.9603 5 19.816 5.43597C20.5686 5.81947 21.1805 6.43139 21.564 7.18404C22 8.03969 22 9.15979 22 11.4L22 15.6C22 17.8402 22 18.9603 21.564 19.816C21.1805 20.5686 20.5686 21.1805 19.816 21.564C18.9603 22 17.8402 22 15.6 22L8.4 22C6.15979 22 5.03968 22 4.18404 21.564C3.43139 21.1805 2.81947 20.5686 2.43597 19.816C2 18.9603 2 17.8402 2 15.6L2 11.4C2 9.15979 2 8.03968 2.43597 7.18404C2.81947 6.43139 3.43139 5.81947 4.18404 5.43597C5.03968 5 6.15979 5 8.4 5L15.6 5Z" fill="url(#1752500502812-6140456_wallet-content_existing_1_7cu7qxlwm)"></path>
                  </clipPath>
                  <mask id="1752500502812-6140456_wallet-content_mask_qkctbcwzb">
                    <rect width="100%" height="100%" fill="#FFF"></rect>
                    <path d="M15.6 5C17.8402 5 18.9603 5 19.816 5.43597C20.5686 5.81947 21.1805 6.43139 21.564 7.18404C22 8.03969 22 9.15979 22 11.4L22 15.6C22 17.8402 22 18.9603 21.564 19.816C21.1805 20.5686 20.5686 21.1805 19.816 21.564C18.9603 22 17.8402 22 15.6 22L8.4 22C6.15979 22 5.03968 22 4.18404 21.564C3.43139 21.1805 2.81947 20.5686 2.43597 19.816C2 18.9603 2 17.8402 2 15.6L2 11.4C2 9.15979 2 8.03968 2.43597 7.18404C2.81947 6.43139 3.43139 5.81947 4.18404 5.43597C5.03968 5 6.15979 5 8.4 5L15.6 5Z" fill="#000"></path>
                  </mask>
                </defs>
              </g>
            </svg>