<svg width="665" height="665" viewBox="0 0 665 665" fill="none" xmlns="http://www.w3.org/2000/svg">
<path d="M0 40V626H529V563.979H70.1691V102.093H529V40H0Z" fill="white"/>
<path d="M524.483 514C628.2 514 665 454.863 665 404.266C665 348.43 633.087 314.125 570.124 302.355L504.573 290.585C483.729 286.781 459.795 279.102 459.795 253.624C459.723 223.41 490.198 212.573 518.517 212.573C556.252 212.573 576.952 225.276 583.205 252.476H653.356C645.019 190.253 595.856 152 519.236 152C428.313 152 387.631 204.391 387.631 256.351C387.631 308.312 418.538 341.038 476.973 351.373L544.105 363.143C568.183 367.592 592.837 376.348 592.837 408.07C592.837 436.059 567.608 453.427 527.142 453.427C481.07 453.427 453.685 435.916 448.079 402.687H378C386.05 472.374 438.879 514 524.483 514Z" fill="white"/>
</svg>
